<mxfile host="app.diagrams.net" modified="2022-02-13T06:59:17.155Z" agent="5.0 (Windows NT 10.0; Win64; x64) AppleWebKit/537.36 (KHTML, like Gecko) Chrome/98.0.4758.82 Safari/537.36" etag="1t9zeL1IFoCHr6fuIkGp" version="16.5.3" type="github">
  <diagram id="mgHoZhXMAMKyi1dD9vLh" name="Page-1">
    <mxGraphModel dx="4063" dy="2177" grid="1" gridSize="10" guides="1" tooltips="1" connect="1" arrows="1" fold="1" page="1" pageScale="1" pageWidth="827" pageHeight="1169" math="0" shadow="0">
      <root>
        <mxCell id="0" />
        <mxCell id="1" parent="0" />
        <mxCell id="zJtn4mZ4iIvfXORFFdKi-33" value="Буфер последовательного порта" style="rounded=1;whiteSpace=wrap;html=1;" parent="1" vertex="1">
          <mxGeometry x="730" y="710" width="970" height="140" as="geometry" />
        </mxCell>
        <mxCell id="zJtn4mZ4iIvfXORFFdKi-1" value="" style="rounded=1;whiteSpace=wrap;html=1;" parent="1" vertex="1">
          <mxGeometry x="80" y="70" width="310" height="410" as="geometry" />
        </mxCell>
        <mxCell id="zJtn4mZ4iIvfXORFFdKi-2" value="1" style="rounded=0;whiteSpace=wrap;html=1;fillColor=#d5e8d4;strokeColor=#82b366;" parent="1" vertex="1">
          <mxGeometry x="90" y="100" width="120" height="60" as="geometry" />
        </mxCell>
        <mxCell id="zJtn4mZ4iIvfXORFFdKi-3" value="2" style="rounded=0;whiteSpace=wrap;html=1;fillColor=#d5e8d4;strokeColor=#82b366;" parent="1" vertex="1">
          <mxGeometry x="210" y="100" width="120" height="60" as="geometry" />
        </mxCell>
        <mxCell id="zJtn4mZ4iIvfXORFFdKi-4" value="3" style="rounded=0;whiteSpace=wrap;html=1;fillColor=#d5e8d4;strokeColor=#82b366;" parent="1" vertex="1">
          <mxGeometry x="90" y="190" width="120" height="60" as="geometry" />
        </mxCell>
        <mxCell id="zJtn4mZ4iIvfXORFFdKi-5" value="4" style="rounded=0;whiteSpace=wrap;html=1;fillColor=#f8cecc;strokeColor=#b85450;" parent="1" vertex="1">
          <mxGeometry x="90" y="280" width="120" height="60" as="geometry" />
        </mxCell>
        <mxCell id="zJtn4mZ4iIvfXORFFdKi-6" value="5" style="rounded=0;whiteSpace=wrap;html=1;fillColor=#f8cecc;strokeColor=#b85450;" parent="1" vertex="1">
          <mxGeometry x="210" y="280" width="120" height="60" as="geometry" />
        </mxCell>
        <mxCell id="zJtn4mZ4iIvfXORFFdKi-8" value="5 байт" style="text;html=1;strokeColor=none;fillColor=none;align=center;verticalAlign=middle;whiteSpace=wrap;rounded=0;" parent="1" vertex="1">
          <mxGeometry x="270" y="190" width="60" height="30" as="geometry" />
        </mxCell>
        <mxCell id="zJtn4mZ4iIvfXORFFdKi-9" value="" style="rounded=1;whiteSpace=wrap;html=1;" parent="1" vertex="1">
          <mxGeometry x="920" y="70" width="410" height="410" as="geometry" />
        </mxCell>
        <mxCell id="zJtn4mZ4iIvfXORFFdKi-10" value="" style="rounded=0;whiteSpace=wrap;html=1;" parent="1" vertex="1">
          <mxGeometry x="930" y="100" width="120" height="60" as="geometry" />
        </mxCell>
        <mxCell id="zJtn4mZ4iIvfXORFFdKi-11" value="" style="rounded=0;whiteSpace=wrap;html=1;" parent="1" vertex="1">
          <mxGeometry x="1050" y="100" width="120" height="60" as="geometry" />
        </mxCell>
        <mxCell id="zJtn4mZ4iIvfXORFFdKi-12" value="" style="rounded=0;whiteSpace=wrap;html=1;" parent="1" vertex="1">
          <mxGeometry x="930" y="190" width="120" height="60" as="geometry" />
        </mxCell>
        <mxCell id="zJtn4mZ4iIvfXORFFdKi-13" value="" style="rounded=0;whiteSpace=wrap;html=1;" parent="1" vertex="1">
          <mxGeometry x="930" y="280" width="120" height="60" as="geometry" />
        </mxCell>
        <mxCell id="zJtn4mZ4iIvfXORFFdKi-14" value="" style="rounded=0;whiteSpace=wrap;html=1;" parent="1" vertex="1">
          <mxGeometry x="1050" y="280" width="120" height="60" as="geometry" />
        </mxCell>
        <mxCell id="zJtn4mZ4iIvfXORFFdKi-15" value="5 байт" style="text;html=1;strokeColor=none;fillColor=none;align=center;verticalAlign=middle;whiteSpace=wrap;rounded=0;" parent="1" vertex="1">
          <mxGeometry x="1240" y="110" width="60" height="30" as="geometry" />
        </mxCell>
        <mxCell id="zJtn4mZ4iIvfXORFFdKi-16" value="Serial.aviable = 5" style="text;html=1;align=center;verticalAlign=middle;resizable=0;points=[];autosize=1;strokeColor=none;fillColor=none;" parent="1" vertex="1">
          <mxGeometry x="1410" y="690" width="110" height="20" as="geometry" />
        </mxCell>
        <mxCell id="zJtn4mZ4iIvfXORFFdKi-20" value="4" style="rounded=0;whiteSpace=wrap;html=1;fillColor=#f8cecc;strokeColor=#b85450;" parent="1" vertex="1">
          <mxGeometry x="300" y="570" width="120" height="60" as="geometry" />
        </mxCell>
        <mxCell id="zJtn4mZ4iIvfXORFFdKi-21" value="5" style="rounded=0;whiteSpace=wrap;html=1;fillColor=#f8cecc;strokeColor=#b85450;" parent="1" vertex="1">
          <mxGeometry x="170" y="570" width="120" height="60" as="geometry" />
        </mxCell>
        <mxCell id="zJtn4mZ4iIvfXORFFdKi-22" value="" style="endArrow=classic;html=1;rounded=0;edgeStyle=orthogonalEdgeStyle;" parent="1" edge="1">
          <mxGeometry relative="1" as="geometry">
            <mxPoint x="150" y="660" as="sourcePoint" />
            <mxPoint x="800" y="670" as="targetPoint" />
            <Array as="points">
              <mxPoint x="150" y="670" />
            </Array>
          </mxGeometry>
        </mxCell>
        <mxCell id="zJtn4mZ4iIvfXORFFdKi-23" value="Label" style="edgeLabel;resizable=0;html=1;align=center;verticalAlign=middle;" parent="zJtn4mZ4iIvfXORFFdKi-22" connectable="0" vertex="1">
          <mxGeometry relative="1" as="geometry" />
        </mxCell>
        <mxCell id="zJtn4mZ4iIvfXORFFdKi-24" value="Буфер последовательного порта" style="rounded=1;whiteSpace=wrap;html=1;" parent="1" vertex="1">
          <mxGeometry x="860" y="540" width="690" height="140" as="geometry" />
        </mxCell>
        <mxCell id="zJtn4mZ4iIvfXORFFdKi-17" value="1" style="rounded=0;whiteSpace=wrap;html=1;fillColor=#d5e8d4;strokeColor=#82b366;" parent="1" vertex="1">
          <mxGeometry x="1121" y="570" width="120" height="60" as="geometry" />
        </mxCell>
        <mxCell id="zJtn4mZ4iIvfXORFFdKi-18" value="2" style="rounded=0;whiteSpace=wrap;html=1;fillColor=#d5e8d4;strokeColor=#82b366;" parent="1" vertex="1">
          <mxGeometry x="991" y="570" width="120" height="60" as="geometry" />
        </mxCell>
        <mxCell id="zJtn4mZ4iIvfXORFFdKi-19" value="3" style="rounded=0;whiteSpace=wrap;html=1;fillColor=#d5e8d4;strokeColor=#82b366;" parent="1" vertex="1">
          <mxGeometry x="861" y="570" width="120" height="60" as="geometry" />
        </mxCell>
        <mxCell id="zJtn4mZ4iIvfXORFFdKi-25" value="5" style="rounded=0;whiteSpace=wrap;html=1;fillColor=#f8cecc;strokeColor=#b85450;" parent="1" vertex="1">
          <mxGeometry x="601" y="570" width="120" height="60" as="geometry" />
        </mxCell>
        <mxCell id="zJtn4mZ4iIvfXORFFdKi-26" value="4" style="rounded=0;whiteSpace=wrap;html=1;fillColor=#f8cecc;strokeColor=#b85450;" parent="1" vertex="1">
          <mxGeometry x="731" y="570" width="120" height="60" as="geometry" />
        </mxCell>
        <mxCell id="zJtn4mZ4iIvfXORFFdKi-27" value="1" style="rounded=0;whiteSpace=wrap;html=1;fillColor=#d5e8d4;strokeColor=#82b366;" parent="1" vertex="1">
          <mxGeometry x="1410" y="720" width="120" height="60" as="geometry" />
        </mxCell>
        <mxCell id="zJtn4mZ4iIvfXORFFdKi-28" value="2" style="rounded=0;whiteSpace=wrap;html=1;fillColor=#d5e8d4;strokeColor=#82b366;" parent="1" vertex="1">
          <mxGeometry x="1280" y="720" width="120" height="60" as="geometry" />
        </mxCell>
        <mxCell id="zJtn4mZ4iIvfXORFFdKi-29" value="3" style="rounded=0;whiteSpace=wrap;html=1;fillColor=#d5e8d4;strokeColor=#82b366;" parent="1" vertex="1">
          <mxGeometry x="1150" y="720" width="120" height="60" as="geometry" />
        </mxCell>
        <mxCell id="zJtn4mZ4iIvfXORFFdKi-30" value="5" style="rounded=0;whiteSpace=wrap;html=1;fillColor=#d5e8d4;strokeColor=#82b366;" parent="1" vertex="1">
          <mxGeometry x="890" y="720" width="120" height="60" as="geometry" />
        </mxCell>
        <mxCell id="zJtn4mZ4iIvfXORFFdKi-31" value="4" style="rounded=0;whiteSpace=wrap;html=1;fillColor=#d5e8d4;strokeColor=#82b366;" parent="1" vertex="1">
          <mxGeometry x="1020" y="720" width="120" height="60" as="geometry" />
        </mxCell>
        <mxCell id="zJtn4mZ4iIvfXORFFdKi-32" value="Serial.aviable = 3" style="text;html=1;align=center;verticalAlign=middle;resizable=0;points=[];autosize=1;strokeColor=none;fillColor=none;" parent="1" vertex="1">
          <mxGeometry x="1400" y="510" width="110" height="20" as="geometry" />
        </mxCell>
        <mxCell id="zJtn4mZ4iIvfXORFFdKi-34" value="9600" style="text;html=1;strokeColor=none;fillColor=none;align=center;verticalAlign=middle;whiteSpace=wrap;rounded=0;" parent="1" vertex="1">
          <mxGeometry x="70" y="900" width="60" height="30" as="geometry" />
        </mxCell>
        <mxCell id="zJtn4mZ4iIvfXORFFdKi-35" value="" style="rounded=0;whiteSpace=wrap;html=1;fillColor=#dae8fc;strokeColor=#6c8ebf;" parent="1" vertex="1">
          <mxGeometry x="1555" y="720" width="120" height="60" as="geometry" />
        </mxCell>
        <mxCell id="zJtn4mZ4iIvfXORFFdKi-36" value="" style="rounded=0;whiteSpace=wrap;html=1;fillColor=#dae8fc;strokeColor=#6c8ebf;" parent="1" vertex="1">
          <mxGeometry x="750" y="720" width="120" height="60" as="geometry" />
        </mxCell>
        <mxCell id="zJtn4mZ4iIvfXORFFdKi-37" value="Pentest" style="ellipse;whiteSpace=wrap;html=1;aspect=fixed;" parent="1" vertex="1">
          <mxGeometry x="290" y="1060" width="170" height="170" as="geometry" />
        </mxCell>
        <mxCell id="zJtn4mZ4iIvfXORFFdKi-38" value="Linux" style="ellipse;whiteSpace=wrap;html=1;aspect=fixed;" parent="1" vertex="1">
          <mxGeometry x="426" y="1055" width="175" height="175" as="geometry" />
        </mxCell>
        <mxCell id="zJtn4mZ4iIvfXORFFdKi-39" value="Proto&lt;br&gt;RFC" style="ellipse;whiteSpace=wrap;html=1;aspect=fixed;fillColor=#f8cecc;strokeColor=#b85450;" parent="1" vertex="1">
          <mxGeometry x="590" y="950" width="170" height="170" as="geometry" />
        </mxCell>
        <mxCell id="zJtn4mZ4iIvfXORFFdKi-40" value="Реализация" style="ellipse;whiteSpace=wrap;html=1;aspect=fixed;textOpacity=50;fillColor=#d5e8d4;strokeColor=#82b366;" parent="1" vertex="1">
          <mxGeometry x="710" y="950" width="170" height="170" as="geometry" />
        </mxCell>
        <mxCell id="zJtn4mZ4iIvfXORFFdKi-41" value="" style="whiteSpace=wrap;html=1;aspect=fixed;" parent="1" vertex="1">
          <mxGeometry x="360" y="1310" width="730" height="730" as="geometry" />
        </mxCell>
        <mxCell id="zJtn4mZ4iIvfXORFFdKi-50" style="edgeStyle=orthogonalEdgeStyle;rounded=0;orthogonalLoop=1;jettySize=auto;html=1;" parent="1" source="zJtn4mZ4iIvfXORFFdKi-42" target="zJtn4mZ4iIvfXORFFdKi-47" edge="1">
          <mxGeometry relative="1" as="geometry" />
        </mxCell>
        <mxCell id="zJtn4mZ4iIvfXORFFdKi-42" value="Linux" style="rounded=0;whiteSpace=wrap;html=1;" parent="1" vertex="1">
          <mxGeometry x="426" y="1400" width="120" height="60" as="geometry" />
        </mxCell>
        <mxCell id="zJtn4mZ4iIvfXORFFdKi-43" value="" style="rounded=0;whiteSpace=wrap;html=1;" parent="1" vertex="1">
          <mxGeometry x="80" y="1330" width="120" height="60" as="geometry" />
        </mxCell>
        <mxCell id="zJtn4mZ4iIvfXORFFdKi-45" style="edgeStyle=orthogonalEdgeStyle;rounded=0;orthogonalLoop=1;jettySize=auto;html=1;entryX=0.42;entryY=1.007;entryDx=0;entryDy=0;entryPerimeter=0;" parent="1" source="zJtn4mZ4iIvfXORFFdKi-44" target="zJtn4mZ4iIvfXORFFdKi-42" edge="1">
          <mxGeometry relative="1" as="geometry" />
        </mxCell>
        <mxCell id="zJtn4mZ4iIvfXORFFdKi-44" value="NTP_d" style="rounded=1;whiteSpace=wrap;html=1;" parent="1" vertex="1">
          <mxGeometry x="230" y="1520" width="120" height="60" as="geometry" />
        </mxCell>
        <mxCell id="zJtn4mZ4iIvfXORFFdKi-47" value="Linux" style="rounded=0;whiteSpace=wrap;html=1;" parent="1" vertex="1">
          <mxGeometry x="640" y="1400" width="120" height="60" as="geometry" />
        </mxCell>
        <mxCell id="zJtn4mZ4iIvfXORFFdKi-48" value="Linux" style="rounded=0;whiteSpace=wrap;html=1;" parent="1" vertex="1">
          <mxGeometry x="640" y="1480" width="120" height="60" as="geometry" />
        </mxCell>
        <mxCell id="zJtn4mZ4iIvfXORFFdKi-49" value="Linux" style="rounded=0;whiteSpace=wrap;html=1;" parent="1" vertex="1">
          <mxGeometry x="640" y="1560" width="120" height="60" as="geometry" />
        </mxCell>
        <mxCell id="G8LdyGT09QCiOHP81aau-1" value="" style="rounded=0;whiteSpace=wrap;html=1;" parent="1" vertex="1">
          <mxGeometry x="1880" y="140" width="120" height="60" as="geometry" />
        </mxCell>
        <mxCell id="G8LdyGT09QCiOHP81aau-2" value="" style="rounded=0;whiteSpace=wrap;html=1;" parent="1" vertex="1">
          <mxGeometry x="2068" y="140" width="120" height="60" as="geometry" />
        </mxCell>
        <mxCell id="G8LdyGT09QCiOHP81aau-3" value="" style="rounded=0;whiteSpace=wrap;html=1;" parent="1" vertex="1">
          <mxGeometry x="2270" y="140" width="120" height="60" as="geometry" />
        </mxCell>
        <mxCell id="G8LdyGT09QCiOHP81aau-4" value="" style="curved=1;endArrow=classic;html=1;rounded=0;entryX=0.5;entryY=0;entryDx=0;entryDy=0;" parent="1" target="G8LdyGT09QCiOHP81aau-2" edge="1">
          <mxGeometry width="50" height="50" relative="1" as="geometry">
            <mxPoint x="1930" y="130" as="sourcePoint" />
            <mxPoint x="1980" y="80" as="targetPoint" />
            <Array as="points">
              <mxPoint x="1970" y="60" />
              <mxPoint x="2030" y="40" />
            </Array>
          </mxGeometry>
        </mxCell>
        <mxCell id="G8LdyGT09QCiOHP81aau-5" value="" style="curved=1;endArrow=classic;html=1;rounded=0;entryX=0.5;entryY=0;entryDx=0;entryDy=0;" parent="1" edge="1">
          <mxGeometry width="50" height="50" relative="1" as="geometry">
            <mxPoint x="2150" y="130" as="sourcePoint" />
            <mxPoint x="2348" y="140" as="targetPoint" />
            <Array as="points">
              <mxPoint x="2190" y="60" />
              <mxPoint x="2250" y="40" />
            </Array>
          </mxGeometry>
        </mxCell>
        <mxCell id="G8LdyGT09QCiOHP81aau-6" value="" style="curved=1;endArrow=classic;html=1;rounded=0;" parent="1" edge="1">
          <mxGeometry width="50" height="50" relative="1" as="geometry">
            <mxPoint x="2360" y="210" as="sourcePoint" />
            <mxPoint x="1950" y="210" as="targetPoint" />
            <Array as="points">
              <mxPoint x="2220" y="340" />
              <mxPoint x="2060" y="360" />
            </Array>
          </mxGeometry>
        </mxCell>
        <mxCell id="G8LdyGT09QCiOHP81aau-7" value="" style="shape=cylinder3;whiteSpace=wrap;html=1;boundedLbl=1;backgroundOutline=1;size=15;" parent="1" vertex="1">
          <mxGeometry x="1910" y="505" width="200" height="80" as="geometry" />
        </mxCell>
        <mxCell id="G8LdyGT09QCiOHP81aau-8" value="SQL" style="text;html=1;strokeColor=none;fillColor=none;align=center;verticalAlign=middle;whiteSpace=wrap;rounded=0;" parent="1" vertex="1">
          <mxGeometry x="1980" y="510" width="60" height="30" as="geometry" />
        </mxCell>
        <mxCell id="G8LdyGT09QCiOHP81aau-9" value="" style="shape=flexArrow;endArrow=classic;html=1;rounded=0;" parent="1" edge="1">
          <mxGeometry width="50" height="50" relative="1" as="geometry">
            <mxPoint x="2120" y="540" as="sourcePoint" />
            <mxPoint x="2190" y="540" as="targetPoint" />
          </mxGeometry>
        </mxCell>
        <mxCell id="G8LdyGT09QCiOHP81aau-12" value="" style="edgeStyle=orthogonalEdgeStyle;rounded=0;orthogonalLoop=1;jettySize=auto;html=1;" parent="1" source="G8LdyGT09QCiOHP81aau-10" target="G8LdyGT09QCiOHP81aau-11" edge="1">
          <mxGeometry relative="1" as="geometry" />
        </mxCell>
        <mxCell id="G8LdyGT09QCiOHP81aau-10" value="TAR" style="text;html=1;strokeColor=none;fillColor=none;align=center;verticalAlign=middle;whiteSpace=wrap;rounded=0;" parent="1" vertex="1">
          <mxGeometry x="2200" y="530" width="60" height="30" as="geometry" />
        </mxCell>
        <mxCell id="G8LdyGT09QCiOHP81aau-14" value="" style="edgeStyle=orthogonalEdgeStyle;rounded=0;orthogonalLoop=1;jettySize=auto;html=1;" parent="1" source="G8LdyGT09QCiOHP81aau-11" target="G8LdyGT09QCiOHP81aau-13" edge="1">
          <mxGeometry relative="1" as="geometry" />
        </mxCell>
        <mxCell id="G8LdyGT09QCiOHP81aau-11" value="GZIP" style="text;html=1;strokeColor=none;fillColor=none;align=center;verticalAlign=middle;whiteSpace=wrap;rounded=0;" parent="1" vertex="1">
          <mxGeometry x="2340" y="530" width="60" height="30" as="geometry" />
        </mxCell>
        <mxCell id="G8LdyGT09QCiOHP81aau-13" value="" style="ellipse;shape=cloud;whiteSpace=wrap;html=1;" parent="1" vertex="1">
          <mxGeometry x="2450" y="505" width="120" height="80" as="geometry" />
        </mxCell>
        <mxCell id="G8LdyGT09QCiOHP81aau-17" value="" style="edgeStyle=orthogonalEdgeStyle;rounded=0;orthogonalLoop=1;jettySize=auto;html=1;fontSize=36;" parent="1" source="G8LdyGT09QCiOHP81aau-15" target="G8LdyGT09QCiOHP81aau-16" edge="1">
          <mxGeometry relative="1" as="geometry" />
        </mxCell>
        <mxCell id="G8LdyGT09QCiOHP81aau-15" value="&lt;font style=&quot;font-size: 36px&quot;&gt;TOP&lt;br&gt;HTOP&lt;br&gt;*TOP&lt;br&gt;&lt;br&gt;PS --key&lt;br&gt;&lt;/font&gt;" style="rounded=0;whiteSpace=wrap;html=1;" parent="1" vertex="1">
          <mxGeometry x="1930" y="710" width="230" height="250" as="geometry" />
        </mxCell>
        <mxCell id="G8LdyGT09QCiOHP81aau-19" value="" style="edgeStyle=orthogonalEdgeStyle;rounded=0;orthogonalLoop=1;jettySize=auto;html=1;fontSize=36;" parent="1" source="G8LdyGT09QCiOHP81aau-16" target="G8LdyGT09QCiOHP81aau-18" edge="1">
          <mxGeometry relative="1" as="geometry" />
        </mxCell>
        <mxCell id="G8LdyGT09QCiOHP81aau-16" value="&lt;font style=&quot;font-size: 36px&quot;&gt;Процессы&lt;br&gt;Утилизацию CPU, ОЗУ&lt;br&gt;ФС&amp;nbsp;&lt;br&gt;Network&amp;nbsp;&lt;br&gt;&lt;/font&gt;" style="rounded=0;whiteSpace=wrap;html=1;" parent="1" vertex="1">
          <mxGeometry x="2240" y="710" width="230" height="250" as="geometry" />
        </mxCell>
        <mxCell id="G8LdyGT09QCiOHP81aau-18" value="&lt;font style=&quot;font-size: 36px&quot;&gt;API&lt;br&gt;WEB&lt;br&gt;RRD&lt;br&gt;&lt;/font&gt;" style="rounded=0;whiteSpace=wrap;html=1;" parent="1" vertex="1">
          <mxGeometry x="2550" y="710" width="230" height="250" as="geometry" />
        </mxCell>
        <mxCell id="G8LdyGT09QCiOHP81aau-22" value="" style="edgeStyle=orthogonalEdgeStyle;rounded=0;orthogonalLoop=1;jettySize=auto;html=1;fontSize=36;shape=flexArrow;endArrow=none;endFill=0;" parent="1" source="G8LdyGT09QCiOHP81aau-20" target="G8LdyGT09QCiOHP81aau-21" edge="1">
          <mxGeometry relative="1" as="geometry" />
        </mxCell>
        <mxCell id="G8LdyGT09QCiOHP81aau-24" value="" style="edgeStyle=orthogonalEdgeStyle;shape=flexArrow;rounded=0;orthogonalLoop=1;jettySize=auto;html=1;fontSize=36;endArrow=none;endFill=0;" parent="1" source="G8LdyGT09QCiOHP81aau-20" target="G8LdyGT09QCiOHP81aau-23" edge="1">
          <mxGeometry relative="1" as="geometry" />
        </mxCell>
        <mxCell id="G8LdyGT09QCiOHP81aau-20" value="agent&lt;br&gt;ssh key-managment" style="shape=cube;whiteSpace=wrap;html=1;boundedLbl=1;backgroundOutline=1;darkOpacity=0.05;darkOpacity2=0.1;fontSize=36;" parent="1" vertex="1">
          <mxGeometry x="1930" y="960" width="230" height="160" as="geometry" />
        </mxCell>
        <mxCell id="G8LdyGT09QCiOHP81aau-21" value="Server" style="whiteSpace=wrap;html=1;fontSize=36;" parent="1" vertex="1">
          <mxGeometry x="2310" y="1010" width="120" height="60" as="geometry" />
        </mxCell>
        <mxCell id="G8LdyGT09QCiOHP81aau-26" value="" style="edgeStyle=orthogonalEdgeStyle;shape=flexArrow;rounded=0;orthogonalLoop=1;jettySize=auto;html=1;fontSize=36;endArrow=none;endFill=0;" parent="1" source="G8LdyGT09QCiOHP81aau-23" target="G8LdyGT09QCiOHP81aau-25" edge="1">
          <mxGeometry relative="1" as="geometry" />
        </mxCell>
        <mxCell id="G8LdyGT09QCiOHP81aau-23" value="SSH" style="whiteSpace=wrap;html=1;fontSize=36;" parent="1" vertex="1">
          <mxGeometry x="1985" y="1190" width="120" height="60" as="geometry" />
        </mxCell>
        <mxCell id="G8LdyGT09QCiOHP81aau-25" value="user@ip" style="whiteSpace=wrap;html=1;fontSize=36;" parent="1" vertex="1">
          <mxGeometry x="2185" y="1190" width="225" height="60" as="geometry" />
        </mxCell>
        <mxCell id="G8LdyGT09QCiOHP81aau-27" value="bash-script" style="text;html=1;align=center;verticalAlign=middle;resizable=0;points=[];autosize=1;strokeColor=none;fillColor=none;fontSize=36;" parent="1" vertex="1">
          <mxGeometry x="2220" y="1090" width="190" height="50" as="geometry" />
        </mxCell>
        <mxCell id="G8LdyGT09QCiOHP81aau-29" value="Обработка логов" style="text;html=1;align=center;verticalAlign=middle;resizable=0;points=[];autosize=1;strokeColor=none;fillColor=none;fontSize=36;" parent="1" vertex="1">
          <mxGeometry x="2530" y="1090" width="300" height="50" as="geometry" />
        </mxCell>
      </root>
    </mxGraphModel>
  </diagram>
</mxfile>
